<?xml version="1.0" encoding="UTF-8" standalone="no"?>
<!-- Created with Inkscape (http://www.inkscape.org/) -->

<svg
   xmlns:dc="http://purl.org/dc/elements/1.1/"
   xmlns:cc="http://creativecommons.org/ns#"
   xmlns:rdf="http://www.w3.org/1999/02/22-rdf-syntax-ns#"
   xmlns:svg="http://www.w3.org/2000/svg"
   xmlns="http://www.w3.org/2000/svg"
   xmlns:sodipodi="http://sodipodi.sourceforge.net/DTD/sodipodi-0.dtd"
   xmlns:inkscape="http://www.inkscape.org/namespaces/inkscape"
   version="1.0"
   width="859.06531"
   height="752.44757"
   id="svg2"
   sodipodi:version="0.32"
   inkscape:version="0.47 r22583"
   sodipodi:docname="ZZ.svg"
   inkscape:output_extension="org.inkscape.output.svg.inkscape">
  <metadata
     id="metadata12">
    <rdf:RDF>
      <cc:Work
         rdf:about="">
        <dc:format>image/svg+xml</dc:format>
        <dc:type
           rdf:resource="http://purl.org/dc/dcmitype/StillImage" />
        <dc:title />
      </cc:Work>
    </rdf:RDF>
  </metadata>
  <sodipodi:namedview
     inkscape:window-height="1004"
     inkscape:window-width="1280"
     inkscape:pageshadow="2"
     inkscape:pageopacity="0.0"
     guidetolerance="10.0"
     gridtolerance="10.0"
     objecttolerance="10.0"
     borderopacity="1.0"
     bordercolor="#666666"
     pagecolor="#ffffff"
     id="base"
     inkscape:zoom="0.56492894"
     inkscape:cx="625.69392"
     inkscape:cy="287.99878"
     inkscape:window-x="-8"
     inkscape:window-y="-8"
     inkscape:current-layer="svg2"
     width="200px"
     height="200px"
     showgrid="false"
     inkscape:showpageshadow="false"
     inkscape:window-maximized="1"
     inkscape:snap-global="false" />
  <defs
     id="defs4">
    <marker
       inkscape:stockid="Arrow2Mend"
       orient="auto"
       refY="0"
       refX="0"
       id="Arrow2Mend"
       style="overflow:visible">
      <path
         id="path3696"
         style="font-size:12px;fill-rule:evenodd;stroke-width:0.625;stroke-linejoin:round"
         d="M 8.7185878,4.0337352 -2.2072895,0.01601326 8.7185884,-4.0017078 c -1.7454984,2.3720609 -1.7354408,5.6174519 -6e-7,8.035443 z"
         transform="scale(-0.6,-0.6)" />
    </marker>
    <marker
       inkscape:stockid="Arrow1Send"
       orient="auto"
       refY="0"
       refX="0"
       id="Arrow1Send"
       style="overflow:visible">
      <path
         id="path3684"
         d="M 0,0 5,-5 -12.5,0 5,5 0,0 z"
         style="fill-rule:evenodd;stroke:#000000;stroke-width:1pt;marker-start:none"
         transform="matrix(-0.2,0,0,-0.2,-1.2,0)" />
    </marker>
    <inkscape:perspective
       sodipodi:type="inkscape:persp3d"
       inkscape:vp_x="0 : 450 : 1"
       inkscape:vp_y="0 : 1000 : 0"
       inkscape:vp_z="900 : 450 : 1"
       inkscape:persp3d-origin="450 : 300 : 1"
       id="perspective22" />
    <inkscape:perspective
       id="perspective2836"
       inkscape:persp3d-origin="0.5 : 0.33333333 : 1"
       inkscape:vp_z="1 : 0.5 : 1"
       inkscape:vp_y="0 : 1000 : 0"
       inkscape:vp_x="0 : 0.5 : 1"
       sodipodi:type="inkscape:persp3d" />
    <inkscape:perspective
       id="perspective2850"
       inkscape:persp3d-origin="0.5 : 0.33333333 : 1"
       inkscape:vp_z="1 : 0.5 : 1"
       inkscape:vp_y="0 : 1000 : 0"
       inkscape:vp_x="0 : 0.5 : 1"
       sodipodi:type="inkscape:persp3d" />
    <inkscape:perspective
       id="perspective2864"
       inkscape:persp3d-origin="0.5 : 0.33333333 : 1"
       inkscape:vp_z="1 : 0.5 : 1"
       inkscape:vp_y="0 : 1000 : 0"
       inkscape:vp_x="0 : 0.5 : 1"
       sodipodi:type="inkscape:persp3d" />
    <inkscape:perspective
       id="perspective3654"
       inkscape:persp3d-origin="0.5 : 0.33333333 : 1"
       inkscape:vp_z="1 : 0.5 : 1"
       inkscape:vp_y="0 : 1000 : 0"
       inkscape:vp_x="0 : 0.5 : 1"
       sodipodi:type="inkscape:persp3d" />
    <inkscape:perspective
       id="perspective4338"
       inkscape:persp3d-origin="0.5 : 0.33333333 : 1"
       inkscape:vp_z="1 : 0.5 : 1"
       inkscape:vp_y="0 : 1000 : 0"
       inkscape:vp_x="0 : 0.5 : 1"
       sodipodi:type="inkscape:persp3d" />
    <inkscape:perspective
       id="perspective2823"
       inkscape:persp3d-origin="0.5 : 0.33333333 : 1"
       inkscape:vp_z="1 : 0.5 : 1"
       inkscape:vp_y="0 : 1000 : 0"
       inkscape:vp_x="0 : 0.5 : 1"
       sodipodi:type="inkscape:persp3d" />
    <inkscape:perspective
       id="perspective4361"
       inkscape:persp3d-origin="0.5 : 0.33333333 : 1"
       inkscape:vp_z="1 : 0.5 : 1"
       inkscape:vp_y="0 : 1000 : 0"
       inkscape:vp_x="0 : 0.5 : 1"
       sodipodi:type="inkscape:persp3d" />
    <inkscape:perspective
       id="perspective4379"
       inkscape:persp3d-origin="0.5 : 0.33333333 : 1"
       inkscape:vp_z="1 : 0.5 : 1"
       inkscape:vp_y="0 : 1000 : 0"
       inkscape:vp_x="0 : 0.5 : 1"
       sodipodi:type="inkscape:persp3d" />
    <inkscape:perspective
       id="perspective2824"
       inkscape:persp3d-origin="0.5 : 0.33333333 : 1"
       inkscape:vp_z="1 : 0.5 : 1"
       inkscape:vp_y="0 : 1000 : 0"
       inkscape:vp_x="0 : 0.5 : 1"
       sodipodi:type="inkscape:persp3d" />
    <inkscape:perspective
       id="perspective4402"
       inkscape:persp3d-origin="0.5 : 0.33333333 : 1"
       inkscape:vp_z="1 : 0.5 : 1"
       inkscape:vp_y="0 : 1000 : 0"
       inkscape:vp_x="0 : 0.5 : 1"
       sodipodi:type="inkscape:persp3d" />
    <inkscape:perspective
       id="perspective2825"
       inkscape:persp3d-origin="0.5 : 0.33333333 : 1"
       inkscape:vp_z="1 : 0.5 : 1"
       inkscape:vp_y="0 : 1000 : 0"
       inkscape:vp_x="0 : 0.5 : 1"
       sodipodi:type="inkscape:persp3d" />
    <inkscape:perspective
       id="perspective4425"
       inkscape:persp3d-origin="0.5 : 0.33333333 : 1"
       inkscape:vp_z="1 : 0.5 : 1"
       inkscape:vp_y="0 : 1000 : 0"
       inkscape:vp_x="0 : 0.5 : 1"
       sodipodi:type="inkscape:persp3d" />
    <inkscape:perspective
       id="perspective2829"
       inkscape:persp3d-origin="0.5 : 0.33333333 : 1"
       inkscape:vp_z="1 : 0.5 : 1"
       inkscape:vp_y="0 : 1000 : 0"
       inkscape:vp_x="0 : 0.5 : 1"
       sodipodi:type="inkscape:persp3d" />
    <inkscape:perspective
       id="perspective4463"
       inkscape:persp3d-origin="0.5 : 0.33333333 : 1"
       inkscape:vp_z="1 : 0.5 : 1"
       inkscape:vp_y="0 : 1000 : 0"
       inkscape:vp_x="0 : 0.5 : 1"
       sodipodi:type="inkscape:persp3d" />
    <inkscape:perspective
       id="perspective4487"
       inkscape:persp3d-origin="0.5 : 0.33333333 : 1"
       inkscape:vp_z="1 : 0.5 : 1"
       inkscape:vp_y="0 : 1000 : 0"
       inkscape:vp_x="0 : 0.5 : 1"
       sodipodi:type="inkscape:persp3d" />
    <inkscape:perspective
       id="perspective4503"
       inkscape:persp3d-origin="0.5 : 0.33333333 : 1"
       inkscape:vp_z="1 : 0.5 : 1"
       inkscape:vp_y="0 : 1000 : 0"
       inkscape:vp_x="0 : 0.5 : 1"
       sodipodi:type="inkscape:persp3d" />
    <inkscape:perspective
       id="perspective4521"
       inkscape:persp3d-origin="0.5 : 0.33333333 : 1"
       inkscape:vp_z="1 : 0.5 : 1"
       inkscape:vp_y="0 : 1000 : 0"
       inkscape:vp_x="0 : 0.5 : 1"
       sodipodi:type="inkscape:persp3d" />
    <inkscape:perspective
       id="perspective2824-1"
       inkscape:persp3d-origin="0.5 : 0.33333333 : 1"
       inkscape:vp_z="1 : 0.5 : 1"
       inkscape:vp_y="0 : 1000 : 0"
       inkscape:vp_x="0 : 0.5 : 1"
       sodipodi:type="inkscape:persp3d" />
    <inkscape:perspective
       id="perspective4546"
       inkscape:persp3d-origin="0.5 : 0.33333333 : 1"
       inkscape:vp_z="1 : 0.5 : 1"
       inkscape:vp_y="0 : 1000 : 0"
       inkscape:vp_x="0 : 0.5 : 1"
       sodipodi:type="inkscape:persp3d" />
    <inkscape:perspective
       id="perspective4580"
       inkscape:persp3d-origin="0.5 : 0.33333333 : 1"
       inkscape:vp_z="1 : 0.5 : 1"
       inkscape:vp_y="0 : 1000 : 0"
       inkscape:vp_x="0 : 0.5 : 1"
       sodipodi:type="inkscape:persp3d" />
    <inkscape:perspective
       id="perspective2824-7"
       inkscape:persp3d-origin="0.5 : 0.33333333 : 1"
       inkscape:vp_z="1 : 0.5 : 1"
       inkscape:vp_y="0 : 1000 : 0"
       inkscape:vp_x="0 : 0.5 : 1"
       sodipodi:type="inkscape:persp3d" />
  </defs>
  <path
     style="font-size:medium;font-style:normal;font-variant:normal;font-weight:normal;font-stretch:normal;text-indent:0;text-align:start;text-decoration:none;line-height:normal;letter-spacing:normal;word-spacing:normal;text-transform:none;direction:ltr;block-progression:tb;writing-mode:lr-tb;text-anchor:start;color:#000000;fill:#ffffff;fill-opacity:1;stroke:#000000;stroke-width:3;stroke-miterlimit:4;stroke-dasharray:none;marker:none;visibility:visible;display:inline;overflow:visible;enable-background:accumulate;font-family:Bitstream Vera Sans;-inkscape-font-specification:Bitstream Vera Sans"
     d="m 427.95445,1.5413307 a 30.003,30.003 0 0 0 -24.375,14.9687503 L 5.5170451,705.94758 a 30.003,30.003 0 0 0 25.9686999,45 l 796.093705,0 a 30.003,30.003 0 0 0 25.9688,-45 L 455.51705,16.510081 A 30.003,30.003 0 0 0 427.95445,1.5413307 z"
     id="path3661" />
  <path
     style="font-size:medium;font-style:normal;font-variant:normal;font-weight:normal;font-stretch:normal;text-indent:0;text-align:start;text-decoration:none;line-height:normal;letter-spacing:normal;word-spacing:normal;text-transform:none;direction:ltr;block-progression:tb;writing-mode:lr-tb;text-anchor:start;color:#000000;fill:#d40000;fill-opacity:1;fill-rule:nonzero;stroke:none;stroke-width:10;marker:none;visibility:visible;display:inline;overflow:visible;enable-background:accumulate;font-family:Bitstream Vera Sans;-inkscape-font-specification:Bitstream Vera Sans"
     d="m 428.22015,6.5466287 c 4.55528,-0.23935 9.24143,0.82302 13.25,3 4.00857,2.1769803 7.43927,5.5175683 9.71875,9.4687503 L 849.22015,708.45288 c 4.2898,7.43311 4.2896,17.56677 0,25 -4.2896,7.43323 -13.07409,12.49509 -21.65625,12.5 l -796.062503,0 c -0.01026,-1e-5 -0.02099,2e-5 -0.03125,0 -8.572328,-0.017 -17.340548,-5.07567 -21.6249999,-12.5 -4.28958,-7.43322 -4.289789,-17.5669 0,-25 L 407.90765,19.015379 c 4.07668,-7.067743 12.16514,-12.0296813 20.3125,-12.4687503 z"
     id="path3663" />
  <path
     style="font-size:medium;font-style:normal;font-variant:normal;font-weight:normal;font-stretch:normal;text-indent:0;text-align:start;text-decoration:none;line-height:normal;letter-spacing:normal;word-spacing:normal;text-transform:none;direction:ltr;block-progression:tb;writing-mode:lr-tb;text-anchor:start;color:#000000;fill:#ffffff;fill-opacity:1;fill-rule:nonzero;stroke:none;stroke-width:150;marker:none;visibility:visible;display:inline;overflow:visible;enable-background:accumulate;font-family:Bitstream Vera Sans;-inkscape-font-specification:Bitstream Vera Sans"
     d="m 429.50145,124.17163 318.625,551.78125 -637.1875,0 318.5625,-551.78125 z"
     id="path3602" />
  <path
     style="fill:#000000"
     d="m -389.94549,520.69925 c 0,0 0,0 0,0 z"
     id="path2835" />
  <path
     style="fill:#000000"
     d="m -392.91424,520.76175 0,0 z"
     id="path2833" />
  <path
     id="path1886"
     style="fill:#000000;fill-opacity:1;fill-rule:evenodd;stroke:none"
     d="m 301.55299,440.16434 c -0.71333,0.18742 -1.42666,0.37487 -2.13998,0.56229 -2.04693,0.53787 -3.01291,2.95965 -3.74497,4.49852 -0.97882,2.05761 -2.37166,3.29863 -3.20996,5.06082 -0.87368,1.83661 -1.18146,4.96715 -1.60499,6.74776 -0.61803,2.59839 -0.0511,5.83807 -0.53499,7.87239 -0.31032,1.30469 -2.57598,3.72814 -3.20997,5.06082 -0.92444,1.9433 -1.95614,4.11204 -2.67497,5.62314 -1.08998,2.29127 -1.11482,3.98331 -2.67497,5.6231 -1.33424,1.40239 -2.02202,4.25059 -2.67497,5.62316 -0.93222,1.95963 -0.53499,5.22522 -0.53499,7.87238 0,2.70612 1.72023,4.27794 3.20996,5.06082 2.4168,1.27011 3.99341,1.94811 5.34994,3.37391 1.1957,1.25676 4.04095,1.76469 5.88495,2.24924 2.10481,0.55307 3.75733,1.97461 5.34994,2.81157 2.70245,1.42022 5.57785,-0.80184 6.41994,-1.68696 2.00976,-2.11237 3.2615,-2.91989 4.27995,-5.06081 0.72324,-1.52032 2.77945,-3.48368 3.74497,-4.49848 1.02596,-1.07838 4.64353,-1.59687 5.88494,-2.24929 1.86442,-0.97982 4.97136,-0.56228 7.48992,-0.56228 3.16293,0 3.89351,1.84306 5.34995,3.37386 1.65682,1.74145 2.80678,2.52632 3.74496,4.49852 0.9675,2.03379 1.67374,4.08068 2.67498,6.18544 9.24971,16.97236 10.71587,37.71387 27.81972,48.92129 1.17232,1.23216 4.08972,1.77753 5.88494,2.24923 2.38876,0.62769 4.52113,1.75031 6.41993,2.24929 2.59106,0.68082 4.9506,0.56229 7.48993,0.56229 0.56635,3.20601 1.86996,6.04508 3.20997,8.997 1.23806,8.1252 1.47775,15.91236 4.27995,23.61718 0.68063,2.86153 0.8797,4.26078 1.605,7.3101 0.70894,2.9806 1.06946,5.05858 1.60497,7.31004 0.64488,2.7112 1.50641,4.08405 2.13998,6.74777 0.73309,3.08213 -0.60912,5.37252 -1.06998,7.3101 -0.65204,2.74129 -2.3557,4.38963 -3.20997,6.18544 -0.50807,1.06804 -3.37315,2.98306 -4.27995,3.9362 -2.63611,2.77073 -0.15899,3.33211 2.13996,3.93619 2.76014,0.72524 5.63476,0.56233 8.55992,0.56233 2.85331,0 5.70661,0 8.55992,0 3.43633,0 3.74496,-1.00028 3.74496,-4.49852 0,-3.59096 -0.52498,-4.488 -2.13998,-6.18544 -2.04529,-2.14977 -2.56409,-1.92007 -1.06998,-5.06081 1.18221,-2.48521 1.99674,-2.77169 2.67496,-5.62315 0.008,-0.0309 -2.49699,-5.24905 -2.67496,-5.62315 -0.84872,-1.7841 -1.19507,-5.58662 -1.60499,-7.31006 -0.61867,-2.6011 -1.07,-4.53337 -1.07,-7.87238 0,-3.24598 0.90171,-4.35331 1.605,-7.3101 1.20862,-8.10545 3.59737,-16.00226 4.27995,-24.17951 0,-2.82618 0.4838,-4.84557 1.06999,-7.31004 0.71911,-3.02336 -0.42479,-4.89129 2.13998,-4.21733 29.06009,10.02099 61.6499,0.87772 87.73912,-13.77669 1.83473,-0.48211 -0.1553,0.47179 0.53498,3.37386 0.44237,1.85976 2.7637,3.46712 3.74496,4.49852 1.68318,1.7691 3.17023,2.20745 4.81499,3.9362 1.63453,1.71799 2.9022,2.48807 4.27993,3.93619 0.11079,0.1164 -1.605,5.07026 -1.605,6.74777 0,3.05254 3.1499,2.24925 5.88498,2.24925 2.11392,0 3.33532,-2.94336 4.27993,-3.9362 2.13716,-2.24629 -0.23599,-3.99823 4.27997,-2.81157 0.41716,0.10962 2.15387,4.50578 3.20996,5.06081 4.26507,2.24143 3.74495,-1.08914 3.74495,-4.49848 0,-3.98939 -1.09411,-2.22392 1.60501,-5.06087 1.9104,-2.00795 3.70018,1.59285 4.27996,2.81158 4.18172,8.71634 11.97079,11.92471 20.32982,14.62016 2.34927,0.61733 2.13995,3.16907 2.13995,6.18544 -0.46645,7.54316 1.95004,14.10786 4.81496,20.80562 1.01864,2.1413 2.17289,3.51232 2.67497,5.62311 0.17628,0.74121 -3.3947,4.13037 -3.74496,4.49853 -1.02586,1.07824 -1.75969,5.38599 -2.13997,6.18543 -0.86421,1.8167 -0.61532,5.39848 -1.07003,7.31011 -0.65788,2.76592 -2.15524,3.38188 -4.27993,4.49848 -2.52702,1.32805 -3.16655,1.59569 -4.27997,3.93619 -1.22645,2.57814 0.53428,3.93601 2.67498,4.49853 2.33296,0.61302 5.60598,0 8.02494,0 2.9287,0 5.16866,0.56233 8.02489,0.56233 3.05927,0 3.20999,-2.37667 3.20999,-5.62315 0,-2.8732 0.0323,-5.75887 0.53497,-7.87238 0.49655,-2.08761 2.1271,-3.92268 3.20999,-5.06082 1.50293,-1.57968 1.06998,-4.78087 1.06998,-7.3101 0,-2.81158 0,-5.62315 0,-8.43468 0,-2.81158 0,-5.62314 0,-8.43472 0,-2.81157 0,-5.62315 0,-8.43472 0,-2.81157 0,-5.6231 0,-8.43468 0,-1.4449 3.44836,-3.49919 4.27999,-3.93619 2.02534,-1.0644 2.13995,-3.47514 2.13995,-6.18549 0,-3.24715 -0.63115,-4.70059 -1.60499,-6.74771 -0.86348,-1.81516 -0.53496,-5.223 -0.53496,-7.87243 0,-2.81154 0,-5.62311 0,-8.43468 0,-2.76365 -0.0728,-5.92882 -0.53502,-7.87239 -0.51705,-2.17378 -1.57007,-4.4251 -2.67498,-6.74777 -0.95151,-2.00025 -1.09326,-4.59631 -1.605,-6.74777 -0.57184,-2.40425 -0.95587,-4.01874 -1.60495,-6.74777 -0.72217,-3.03615 -0.40157,-5.06199 -1.07003,-7.87238 -0.64548,-2.71388 -1.02711,-4.31838 -1.60495,-6.74777 -0.52646,-2.21335 -1.06225,-5.02819 -1.60499,-7.31006 -0.65348,-2.74735 -1.2979,-4.17574 -2.67498,-5.62314 -1.73249,-8.16822 -3.08937,-16.85275 -2.67498,-25.30412 0,-2.88505 -0.54538,-5.10442 -1.06999,-7.31006 -0.58747,-2.46991 -0.53496,-4.84331 -0.53496,-7.87239 0,-2.36723 -0.9896,-5.45415 -1.605,-6.74777 -1.10668,-2.32638 -2.34812,-3.03034 -3.74497,-4.49852 -1.63366,-1.71708 -3.67786,-2.23164 -5.88492,-2.81158 -2.066,-0.54286 -3.83494,-1.71054 -5.88497,-2.24923 -1.98217,-0.52087 -4.77816,-0.56229 -7.48993,-0.56229 -9.95438,-0.86424 -18.9197,3.51743 -28.3547,6.18543 -14.211,4.01851 -29.53888,4.68018 -44.40457,5.06082 -21.09442,0 -37.69491,-3.00498 -55.10444,-9.55935 -21.88484,8.25299 -44.7205,9.20567 -67.94433,10.12168 -3.52327,0 -4.40839,-0.62981 -6.41993,-1.68696 -1.30849,-0.68767 -2.69253,-3.97308 -3.20997,-5.06081 -1.1477,-2.4126 1.16726,-3.70616 2.67498,-4.49852 2.25601,-1.18561 2.61223,-2.54779 3.20996,-5.06082 0.57386,-2.41269 0.535,-5.13551 0.535,-7.87238 0,-3.99261 -3.44644,-1.2815 -4.81496,-0.56234 -2.39314,1.25767 -2.88433,2.1637 -5.34994,2.81157 -1.47344,0.38717 -2.8887,3.71017 -3.20997,5.06082 -0.25192,1.05913 -3.47217,3.0872 -4.27996,3.93619 -1.59504,1.67651 -4.23154,-1.6742 -6.41993,-2.24924 -2.4057,-0.63213 -3.87159,-1.12462 -6.95494,-1.12462 -2.55562,0 -5.7439,-0.10348 -7.48992,-0.56233 -1.15797,-0.30426 -1.68464,-5.22827 -2.13999,-6.18543 -1.06736,-2.24375 -2.80635,-3.40841 -4.81494,-3.9362 -2.39174,-0.62845 -3.3155,-3.49249 -4.27996,0.56233 -0.57387,2.4127 -0.53499,5.13551 -0.53499,7.87239 0,3.68893 -0.0449,5.01362 1.60498,6.74777 1.374,1.44413 1.58593,3.85609 2.13998,6.18543 0.56911,2.39268 -0.005,2.79701 1.06999,5.62315 z m 262.6824,60.72987 c 0.0588,0.24749 -4.41969,5.31152 -6.95496,7.31005 -1.6691,1.31576 1.97232,5.27065 2.67498,6.74777 2.73581,4.2214 4.66741,8.785 6.41993,13.49553 0.43119,1.8128 2.78466,3.48912 3.74498,4.49848 0.74086,0.7787 -0.0318,-4.07001 -0.53502,-6.18543 -3.14928,-6.7553 -3.19739,-14.04485 -3.74497,-21.36792 0,-1.28154 -1.351,-3.16377 -1.60494,-4.49848 z"
     sodipodi:nodetypes="csssssssssssssssssssssccsscccssssssssssssssssccsccsssssssssssccccsssssssssssssssssssssssssssssccsssssscscccssssssssssssssssssccsccsccc" />
</svg>
